<?xml version="1.0" encoding="UTF-8" standalone="no"?>
<svg
   xmlns:dc="http://purl.org/dc/elements/1.1/"
   xmlns:cc="http://creativecommons.org/ns#"
   xmlns:rdf="http://www.w3.org/1999/02/22-rdf-syntax-ns#"
   xmlns:svg="http://www.w3.org/2000/svg"
   xmlns="http://www.w3.org/2000/svg"
   xmlns:sodipodi="http://sodipodi.sourceforge.net/DTD/sodipodi-0.dtd"
   xmlns:inkscape="http://www.inkscape.org/namespaces/inkscape"
   height="60px"
   version="1.1"
   viewBox="0 0 60 60"
   width="60px"
   id="svg2"
   inkscape:version="0.48.5 r10040"
   sodipodi:docname="SteamClockWhite.svg">
  <metadata
     id="metadata16">
    <rdf:RDF>
      <cc:Work
         rdf:about="">
        <dc:format>image/svg+xml</dc:format>
        <dc:type
           rdf:resource="http://purl.org/dc/dcmitype/StillImage" />
        <dc:title />
      </cc:Work>
    </rdf:RDF>
  </metadata>
  <sodipodi:namedview
     pagecolor="#ffffff"
     bordercolor="#666666"
     borderopacity="1"
     objecttolerance="10"
     gridtolerance="10"
     guidetolerance="10"
     inkscape:pageopacity="0"
     inkscape:pageshadow="2"
     inkscape:window-width="1680"
     inkscape:window-height="987"
     id="namedview14"
     showgrid="false"
     inkscape:zoom="3.9333333"
     inkscape:cx="-68.627504"
     inkscape:cy="25.233995"
     inkscape:window-x="-8"
     inkscape:window-y="-8"
     inkscape:window-maximized="1"
     inkscape:current-layer="svg2" />
  <defs
     id="defs6" />
  <circle
     transform="matrix(0.46991525,0,0,0.46991525,5.2698262,5.4197723)"
     d="M 103,53 C 103,80.614237 80.614237,103 53,103 25.385763,103 3,80.614237 3,53 3,25.385763 25.385763,3 53,3 c 27.614237,0 50,22.385763 50,50 z"
     style="fill:none;stroke:#ffffff;stroke-width:3.12822366000000020;stroke-miterlimit:4;stroke-opacity:1;stroke-dasharray:none"
     sodipodi:ry="50"
     sodipodi:rx="50"
     sodipodi:cy="53"
     sodipodi:cx="53"
     cx="53"
     cy="53"
     r="50"
     id="circle3017" />
  <g
     id="g3031"
     transform="matrix(0.46991525,0,0,0.46991525,5.4495982,5.5995451)"
     style="stroke:#ffffff;stroke-opacity:1;stroke-width:1.06402164999999990;stroke-miterlimit:4;stroke-dasharray:none">
    <rect
       id="rect3033"
       y="52.200001"
       x="11.6"
       width="5.9000001"
       height="1.6"
       style="fill:#414042;stroke:#ffffff;stroke-opacity:1;stroke-width:1.06402164999999990;stroke-miterlimit:4;stroke-dasharray:none" />
    <rect
       id="rect3035"
       y="52.200001"
       x="88.5"
       width="5.9000001"
       height="1.6"
       style="fill:#414042;stroke:#ffffff;stroke-opacity:1;stroke-width:1.06402164999999990;stroke-miterlimit:4;stroke-dasharray:none" />
  </g>
  <g
     id="g3037"
     transform="matrix(0.46991525,0,0,0.46991525,5.4495982,5.5995451)"
     style="stroke:#ffffff;stroke-opacity:1;stroke-width:1.06402164999999990;stroke-miterlimit:4;stroke-dasharray:none">
    <rect
       id="rect3039"
       y="88.5"
       x="52.200001"
       width="1.6"
       height="5.9000001"
       style="fill:#414042;stroke:#ffffff;stroke-opacity:1;stroke-width:1.06402164999999990;stroke-miterlimit:4;stroke-dasharray:none" />
    <rect
       id="rect3041"
       y="11.6"
       x="52.200001"
       width="1.6"
       height="5.9000001"
       style="fill:#414042;stroke:#ffffff;stroke-opacity:1;stroke-width:1.06402164999999990;stroke-miterlimit:4;stroke-dasharray:none" />
  </g>
  <g
     id="g3043"
     transform="matrix(0.46991525,0,0,0.46991525,5.4495982,5.5995451)"
     style="stroke:#ffffff;stroke-opacity:1;stroke-width:1.06402164999999990;stroke-miterlimit:4;stroke-dasharray:none">
    <rect
       id="rect3045"
       y="77.199997"
       x="25"
       width="1.6"
       transform="matrix(0.7071,0.7071,-0.7071,0.7071,64.2584,5.227)"
       height="5.9000001"
       style="fill:#414042;stroke:#ffffff;stroke-opacity:1;stroke-width:1.06403184999999990;stroke-miterlimit:4;stroke-dasharray:none" />
    <rect
       id="rect3047"
       y="22.9"
       x="79.400002"
       width="1.6"
       transform="matrix(0.7071,0.7071,-0.7071,0.7071,41.7416,-49.1336)"
       height="5.9000001"
       style="fill:#414042;stroke:#ffffff;stroke-opacity:1;stroke-width:1.06403184999999990;stroke-miterlimit:4;stroke-dasharray:none" />
  </g>
  <rect
     style="fill:#414042;stroke-width:0.50000000000000000;stroke-miterlimit:4;stroke-dasharray:none;stroke:#ffffff;stroke-opacity:1"
     height="0.75185722"
     transform="matrix(0.70710678,0.70710678,-0.70710678,0.70710678,0,0)"
     width="2.7724733"
     x="59.696739"
     y="-0.26101452"
     id="rect3051" />
  <rect
     style="fill:#414042;stroke:#ffffff;stroke-opacity:1;stroke-width:0.50000000000000000;stroke-miterlimit:4;stroke-dasharray:none"
     height="0.75185722"
     transform="matrix(0.70710678,0.70710678,-0.70710678,0.70710678,0,0)"
     width="2.7724733"
     x="23.599552"
     y="-0.27928385"
     id="rect3053" />
  <path
     d="m 36.108474,24.023338 c -1.359405,0 -2.459567,-1.164512 -2.459567,-2.600409 0,-1.435898 1.100457,-2.600097 2.459567,-2.600097 1.357929,0 2.458975,1.164199 2.458975,2.600097 0,1.435897 -1.101046,2.600409 -2.458975,2.600409 z m 1.635327,2.293611 -3.317291,2.999955 c 0.03585,0.239466 0.06052,0.482771 0.06052,0.732361 0,2.553836 -1.958602,4.624551 -4.373389,4.624551 -2.083255,0 -3.82281,-1.540819 -4.263537,-3.602459 l -8.199489,-2.941659 c -0.648263,0.520122 -1.45374,0.832545 -2.329931,0.832545 -2.131275,0 -3.859318,-1.827061 -3.859318,-4.080692 0,-2.253283 1.728043,-4.079994 3.859318,-4.079994 1.832634,0 3.363666,1.350921 3.758674,3.160878 l 7.920582,2.841823 c 0.771601,-0.826959 1.835923,-1.345337 3.014702,-1.373262 l 1.186344,-3.813301 c -0.0033,-0.07575 -0.0102,-0.150452 -0.0102,-0.226899 0,-2.881619 2.209882,-5.217632 4.93548,-5.217632 2.726256,0 4.93614,2.336013 4.93614,5.217632 0,2.282255 -1.388291,4.21753 -3.318607,4.926153 l 0,0 z M 17.747638,23.484202 C 17.28652,22.606626 16.40112,22.01215 15.384817,22.01215 c -1.492879,0 -2.702575,1.279362 -2.702575,2.857183 0,1.577822 1.209696,2.856834 2.702575,2.856834 0.275619,0 0.54137,-0.04398 0.791993,-0.125318 l -1.284027,-0.460431 c -1.034722,-0.585748 -1.42414,-1.947492 -0.869942,-3.041494 0.554526,-1.093305 1.8425,-1.504516 2.876563,-0.918767 l 0.848234,0.304045 0,0 z m 18.362608,1.583876 c 1.914809,0 3.46849,-1.641092 3.46849,-3.665463 0,-1.419781 -0.763515,-2.650744 -1.879714,-3.259904 -0.476062,-0.259808 -1.016278,-0.406508 -1.588776,-0.406508 -1.914809,0 -3.466705,1.641092 -3.466705,3.666412 0,2.024371 1.551896,3.665463 3.466705,3.665463 z m -3.099981,5.377736 c 0,-1.704187 -1.306722,-3.085827 -2.918334,-3.085827 -0.226284,0 -0.444674,0.03002 -0.655827,0.08099 l 1.631017,0.58505 c 1.034392,0.586446 1.422823,1.947841 0.868626,3.040797 -0.553868,1.0947 -1.841843,1.505562 -2.875906,0.919813 l -1.757644,-0.630779 c 0.367382,1.259813 1.477421,2.175439 2.789734,2.175439 1.611612,3.48e-4 2.918334,-1.381641 2.918334,-3.085479 l 0,0 z"
     id="path12"
     inkscape:connector-curvature="0"
     style="fill:#ffffff;stroke:none" />
</svg>
